# xmcd
#
# Track frame offsets: 
#        150
#        16927
#        32915
#        48927
#        64852
#        80327
#        96627
#        111352
#        128290
#        142940
#        158202
#        175927
#
# Disc length: 2702 seconds
#
# Revision: 2
# Processed by: cddbd v1.5.1PL2 Copyright (c) Steve Scherf et al.
# Submitted via: ExactAudioCopy v0.95a5
#
DISCID=980a8c0c
DTITLE=airbäg - lueg doch Flühmann
DYEAR=2000
DGENRE=Pop
TTITLE0=filmkuss
TTITLE1=c'est la vie
TTITLE2=lueg doch wider mal ine
TTITLE3=i vergisse nie
TTITLE4=chartehuus
TTITLE5=gump
TTITLE6=verona
TTITLE7=räge reggae
TTITLE8=gimers du sou
TTITLE9=i ha di gärn
TTITLE10=rose
TTITLE11=ig weiss nüme
EXTD=
EXTT0=
EXTT1=
EXTT2=
EXTT3=
EXTT4=
EXTT5=
EXTT6=
EXTT7=
EXTT8=
EXTT9=
EXTT10=
EXTT11=
PLAYORDER=
